<svg width="54" height="56" viewBox="0 0 54 56" fill="none" xmlns="http://www.w3.org/2000/svg">
<path d="M30.8835 34.1971L30.7597 33.9494V8.19723C30.7597 3.86392 27.1693 0.273438 22.836 0.273438C18.5026 0.273438 14.9122 3.86392 14.9122 8.19723V33.9494V34.0731L14.7884 34.1971C12.0646 36.5494 10.4551 39.8922 10.4551 43.6065C10.4551 50.416 16.0265 55.9874 22.836 55.9874C29.6454 55.9874 35.2168 50.416 35.2168 43.6065C35.2168 39.8922 33.6073 36.5494 30.8835 34.1971ZM22.836 53.1397C17.5122 53.1397 13.1789 48.8065 13.1789 43.4827C13.1789 40.3875 14.5408 37.6636 17.0169 35.8065C17.3884 35.5589 17.5122 35.1874 17.5122 34.6922V8.0733C17.5122 5.2257 19.8646 2.87339 22.7122 2.87339C25.5598 2.87339 27.9121 5.2257 27.9121 8.0733V34.6922C27.9121 35.0636 28.1597 35.5589 28.4074 35.8065C30.8835 37.6636 32.2454 40.3875 32.2454 43.4827C32.3692 48.8065 28.1597 53.1397 22.836 53.1397Z" fill="#8486EC"/>
<path d="M24.4402 38.0339H24.1926V37.7862V8.196C24.1926 7.45315 23.5736 6.83398 22.8307 6.83398C22.0879 6.83398 21.4689 7.45315 21.4689 8.196V37.7862V38.0339H21.2212C18.7451 38.7767 17.0117 41.0053 17.0117 43.6053C17.0117 46.8243 19.6117 49.4242 22.8307 49.4242C26.0498 49.4242 28.6498 46.8243 28.6498 43.6053C28.526 41.0053 26.7926 38.7767 24.4402 38.0339ZM22.8307 46.5767C21.2212 46.5767 19.8593 45.2148 19.8593 43.6053C19.8593 41.9958 21.2212 40.6338 22.8307 40.6338C24.4403 40.6338 25.8022 41.9958 25.8022 43.6053C25.8022 45.2148 24.4403 46.5767 22.8307 46.5767Z" fill="#8486EC"/>
<path d="M39.2974 26.7686C38.5546 26.7686 37.9355 27.3876 37.9355 28.1304C37.9355 28.8733 38.5546 29.4923 39.2974 29.4923C40.0403 29.4923 40.6594 28.8733 40.6594 28.1304C40.6594 27.3876 40.0403 26.7686 39.2974 26.7686Z" fill="#8486EC"/>
<path d="M44.8679 22.435C44.6203 22.1873 44.2489 22.0635 43.8775 22.0635C43.5061 22.0635 43.1347 22.1873 42.887 22.435C42.6394 22.6826 42.5156 23.0539 42.5156 23.4253C42.5156 23.7968 42.6394 24.1683 42.887 24.4159C44.868 26.3968 44.868 29.7397 42.887 31.8444C42.6394 32.092 42.5156 32.4634 42.5156 32.8348C42.5156 33.2062 42.6394 33.5777 42.887 33.8253C43.1347 34.0729 43.5061 34.1968 43.8775 34.1968C44.2489 34.1968 44.6203 34.0729 44.8679 33.8253C46.3537 32.3396 47.2203 30.3587 47.2203 28.2539C47.2203 26.1492 46.3537 23.9207 44.8679 22.435Z" fill="#8486EC"/>
<path d="M49.5769 17.8547C49.3293 17.6071 48.9579 17.4834 48.5865 17.4834C48.215 17.4834 47.8436 17.6071 47.596 17.8547C47.3484 18.1024 47.2246 18.4738 47.2246 18.8453C47.2246 19.2167 47.3484 19.588 47.596 19.8356C49.8246 22.0642 51.0627 25.0357 51.0627 28.1309C51.0627 31.2261 49.8246 34.1975 47.596 36.426C47.3484 36.6737 47.2246 37.0452 47.2246 37.4166C47.2246 37.788 47.3484 38.1593 47.596 38.407C47.8436 38.6546 48.215 38.7784 48.5865 38.7784C48.9579 38.7784 49.3293 38.6546 49.5769 38.407C55.2721 32.7118 55.2721 23.4261 49.5769 17.8547Z" fill="#8486EC"/>
<path d="M7.4794 31.7207H2.03186C1.28901 31.7207 0.669922 32.3397 0.669922 33.0826C0.669922 33.8254 1.28901 34.4444 2.03186 34.4444H7.4794C8.22226 34.4444 8.84135 33.8254 8.84135 33.0826C8.84135 32.3397 8.22226 31.7207 7.4794 31.7207Z" fill="#8486EC"/>
<path d="M1.90874 27.881H5.25159C5.99445 27.881 6.61353 27.2619 6.61353 26.5191C6.61353 25.7762 5.99445 25.1572 5.25159 25.1572H1.90874C1.16589 25.1572 0.546875 25.7762 0.546875 26.5191C0.546875 27.2619 1.16589 27.881 1.90874 27.881Z" fill="#8486EC"/>
<path d="M7.4794 18.5986H2.03186C1.28901 18.5986 0.669922 19.2178 0.669922 19.9607C0.669922 20.7035 1.28901 21.3225 2.03186 21.3225H7.4794C8.22226 21.3225 8.84135 20.7035 8.84135 19.9607C8.84135 19.2178 8.22226 18.5986 7.4794 18.5986Z" fill="#8486EC"/>
<path d="M1.90874 14.7589H5.25159C5.99445 14.7589 6.61353 14.1399 6.61353 13.397C6.61353 12.6542 5.99445 12.0352 5.25159 12.0352H1.90874C1.16589 12.0352 0.546875 12.6542 0.546875 13.397C0.546875 14.1399 1.16589 14.7589 1.90874 14.7589Z" fill="#8486EC"/>
<path d="M7.4794 5.34766H2.03186C1.28901 5.34766 0.669922 5.96667 0.669922 6.70952C0.669922 7.45238 1.28901 8.07139 2.03186 8.07139H7.4794C8.22226 8.07139 8.84135 7.45238 8.84135 6.70952C8.84135 5.96667 8.22226 5.34766 7.4794 5.34766Z" fill="#8486EC"/>
</svg>
