<svg width="27" height="31" viewBox="0 0 27 31" fill="none" xmlns="http://www.w3.org/2000/svg">
<path d="M20.3101 19.6118C20.3101 24.9477 15.996 29.3186 10.6033 29.3186C5.21063 29.3186 0.896484 25.0045 0.896484 19.6118C0.896484 14.2191 9.35446 8.94001 7.25416 1.10645C9.63829 1.10645 13.9524 6.10175 13.6118 10.5294C13.4415 12.9703 16.7907 9.28059 16.4501 4.85292C20.3101 7.06675 20.3101 18.0792 20.3101 19.6118Z" stroke="white" stroke-width="1.62435" stroke-miterlimit="10" stroke-linecap="round" stroke-linejoin="round"/>
<path d="M16.9612 23.0175C16.9612 26.4802 14.1229 29.3185 10.6603 29.3185C7.19762 29.3185 4.35938 26.4802 4.35938 23.0175C4.35938 19.5549 9.86558 16.0922 8.50322 10.9834C10.0926 10.9834 12.8741 14.219 12.6471 17.114C12.5335 18.7034 14.6906 16.3193 14.5203 13.4243C16.9612 14.8434 16.9612 21.9958 16.9612 23.0175Z" fill="white"/>
<path d="M19.9695 11.2102H15.0877C14.3498 11.2102 13.8389 10.3588 14.2362 9.73436L16.6771 5.53374L19.118 1.33315C19.5154 0.651971 20.4236 0.651971 20.821 1.33315L23.2619 5.53374L25.7027 9.73436C26.1001 10.4155 25.5892 11.2102 24.8513 11.2102H19.9695Z" stroke="white" stroke-width="1.62435" stroke-miterlimit="10" stroke-linecap="round" stroke-linejoin="round"/>
<path d="M19.8574 4.28418V7.00893" stroke="white" stroke-width="1.62435" stroke-miterlimit="10" stroke-linecap="round" stroke-linejoin="round"/>
<path d="M19.8574 8.88281V9.10985" stroke="white" stroke-width="1.62435" stroke-miterlimit="10" stroke-linecap="round" stroke-linejoin="round"/>
</svg>
