<svg width="67" height="61" viewBox="0 0 67 61" fill="none" xmlns="http://www.w3.org/2000/svg">
<path d="M64.6293 29.4947V29.5807H64.7153H64.7779C64.7352 31.4754 63.2871 33.0532 61.4233 33.0532H61.3595V32.9874V23.7241C61.3595 23.0703 60.8733 22.5751 60.2261 22.5751H7.10374C6.45648 22.5751 5.9703 23.0703 5.9703 23.7241V32.9874V33.0532H5.90655C4.01459 33.0532 2.55096 31.4273 2.55096 29.4947V6.26065C2.55096 4.32797 4.01459 2.70229 5.90655 2.70229H5.9703V2.76807V6.26065C5.9703 9.49437 8.40031 11.9655 11.4434 11.9655H55.7369C58.7814 11.9655 61.2099 9.34097 61.2099 6.26065V2.76807V2.70229H61.2735C63.1655 2.70229 64.6293 4.32797 64.6293 6.26065V29.4947ZM61.2735 0.404201H5.90655C2.86203 0.404201 0.433498 3.0285 0.433498 6.10883V29.3428C0.433498 32.5766 2.86351 35.0475 5.90655 35.0475H61.2735C64.318 35.0475 66.7467 32.4232 66.7467 29.3428V6.11104C66.8976 3.02437 64.3135 0.404201 61.2735 0.404201ZM8.23719 6.26065V2.85385L59.1787 2.70229L59.1789 2.70229L59.2422 2.70229V2.76807V6.26065C59.2422 8.19332 57.7784 9.81919 55.8865 9.81919H11.593C9.70099 9.81919 8.23719 8.19332 8.23719 6.26065ZM8.30094 31.7067L59.2422 31.8583V32.9874V33.0532H59.1787H8.30094H8.23719V32.9874V31.7725V31.7067H8.30068H8.30094ZM59.2422 28.3655V29.4947V29.5604H59.1787H8.30094H8.23719V29.4947V28.2797V28.214H8.30068H8.30094L59.2422 28.3655ZM8.30094 24.7214L59.2422 24.8729V26.0019V26.0679H59.1787H8.30094H8.23719V26.0019V24.7872V24.7214H8.30068H8.30094Z" fill="#8486EC" stroke="#8486EC" stroke-width="0.172066"/>
<path d="M33.2018 41.5562L33.2017 41.5561L33.1985 41.5612C31.7436 43.9579 31.7436 47.102 33.1985 49.4987L33.1985 49.4987L33.1997 49.5005C34.2274 51.1009 34.2275 53.4334 33.2 55.0339C32.4066 56.2321 32.0085 57.5827 32.1401 59.0829C32.1418 59.7105 32.5623 60.2016 33.1414 60.2016C33.7216 60.2016 34.1428 59.7086 34.1428 59.0791C34.1428 58.0549 34.4015 57.0372 34.9115 56.3152L34.9117 56.3153L34.9148 56.3102C36.3697 53.9135 36.3697 50.7694 34.9148 48.3727L34.9148 48.3727L34.9136 48.3709C33.8859 46.7705 33.8858 44.438 34.9133 42.8375C35.7074 41.6383 36.1055 40.2865 35.9729 38.7848L35.9736 38.7847L35.9712 38.7738C35.9046 38.4721 35.8029 38.1983 35.644 37.9985C35.4823 37.7949 35.2623 37.6698 34.972 37.6698C34.3917 37.6698 33.9707 38.1629 33.9707 38.7923C33.9707 39.8165 33.7119 40.8342 33.2018 41.5562Z" fill="#8486EC" stroke="#8486EC" stroke-width="0.172066"/>
<path d="M24.159 41.5489L24.1588 41.5487L24.1549 41.5538C22.3336 43.9538 22.3336 47.1061 24.1549 49.506L24.1549 49.5061L24.1564 49.5079C25.4386 51.1051 25.4387 53.4291 24.1568 55.0265C23.1654 56.2243 22.6649 57.5779 22.8298 59.0839C22.8324 59.7291 23.3684 60.2016 24.0599 60.2016C24.753 60.2016 25.2902 59.7267 25.2902 59.0791C25.2902 58.0591 25.612 57.0442 26.2493 56.3225L26.2495 56.3227L26.2533 56.3176C28.0746 53.9176 28.0746 50.7654 26.2533 48.3654L26.2534 48.3654L26.2519 48.3635C24.9697 46.7663 24.9695 44.4423 26.2515 42.8449C27.2439 41.6459 27.7444 40.2907 27.578 38.7829L27.5791 38.7828L27.5754 38.7694C27.4051 38.1523 26.8888 37.6698 26.3482 37.6698C25.6551 37.6698 25.1181 38.1447 25.1181 38.7923C25.1181 39.8123 24.7962 40.8272 24.159 41.5489Z" fill="#8486EC" stroke="#8486EC" stroke-width="0.172066"/>
<path d="M41.862 41.5489L41.8619 41.5487L41.858 41.5538C40.0368 43.9538 40.0368 47.1061 41.858 49.506L41.858 49.5061L41.8594 49.5079C43.1416 51.1051 43.1417 53.4291 41.8599 55.0265C40.8685 56.2243 40.3682 57.5779 40.5331 59.0839C40.5357 59.7291 41.0717 60.2016 41.7631 60.2016C42.4562 60.2016 42.9932 59.7267 42.9932 59.0791C42.9932 58.0591 43.3152 57.0442 43.9525 56.3225L43.9527 56.3227L43.9565 56.3176C45.7777 53.9176 45.7777 50.7654 43.9565 48.3654L43.9565 48.3654L43.9551 48.3635C42.6729 46.7663 42.6728 44.4423 43.9547 42.8449C44.946 41.6471 45.4463 40.2935 45.2814 38.7875C45.2788 38.1424 44.7428 37.6698 44.0514 37.6698C43.3583 37.6698 42.8211 38.1447 42.8211 38.7923C42.8211 39.8123 42.4993 40.8272 41.862 41.5489Z" fill="#8486EC" stroke="#8486EC" stroke-width="0.172066"/>
</svg>
